HIERARCHY
ROOT joint_Root
{
	OFFSET 0.0 0.0 0.0
	CHANNELS 6 Xposition Yposition Zposition Zrotation Xrotation Yrotation 
	JOINT Hips
	{
		OFFSET 4.5925 91.4895 -427.239
		CHANNELS 6 Xposition Yposition Zposition Zrotation Xrotation Yrotation 
		JOINT Spine
		{
			OFFSET 15.7357 0.0 0.0
			CHANNELS 6 Xposition Yposition Zposition Zrotation Xrotation Yrotation 
			JOINT Chest
			{
				OFFSET 8.98455 -0.406207 0.0
				CHANNELS 6 Xposition Yposition Zposition Zrotation Xrotation Yrotation 
				JOINT Neck
				{
					OFFSET 16.3773 0.0 0.0
					CHANNELS 6 Xposition Yposition Zposition Zrotation Xrotation Yrotation 
					JOINT Head
					{
						OFFSET 6.45672 0.0 0.0
						CHANNELS 6 Xposition Yposition Zposition Zrotation Xrotation Yrotation 
						End Site
						{
							OFFSET 0.0 0.0 0.0
						}
					}
				}
				JOINT Shoulder_L
				{
					OFFSET 12.9942 -0.242716 4.98039
					CHANNELS 6 Xposition Yposition Zposition Zrotation Xrotation Yrotation 
					JOINT UpperArm_L
					{
						OFFSET 5.34809 0.0 0.0
						CHANNELS 6 Xposition Yposition Zposition Zrotation Xrotation Yrotation 
						JOINT LowerArm_L
						{
							OFFSET 24.3286 1.87007e-05 0.0
							CHANNELS 6 Xposition Yposition Zposition Zrotation Xrotation Yrotation 
							JOINT Hand_L
							{
								OFFSET 22.2916 0.0 0.0
								CHANNELS 6 Xposition Yposition Zposition Zrotation Xrotation Yrotation 
								End Site
								{
									OFFSET 0.0 0.0 0.0
								}
							}
						}
					}
				}
				JOINT Shoulder_R
				{
					OFFSET 12.9945 -0.242716 -4.98039
					CHANNELS 6 Xposition Yposition Zposition Zrotation Xrotation Yrotation 
					JOINT UpperArm_R
					{
						OFFSET -5.34813 0.0 0.0
						CHANNELS 6 Xposition Yposition Zposition Zrotation Xrotation Yrotation 
						JOINT LowerArm_R
						{
							OFFSET -24.3289 0.000322201 0.0
							CHANNELS 6 Xposition Yposition Zposition Zrotation Xrotation Yrotation 
							JOINT Hand_R
							{
								OFFSET -22.2915 -0.000108084 0.0
								CHANNELS 6 Xposition Yposition Zposition Zrotation Xrotation Yrotation 
								End Site
								{
									OFFSET 0.0 0.0 0.0
								}
							}
						}
					}
				}
			}
		}
		JOINT UpperLeg_L
		{
			OFFSET -2.19248 -6.46944 0.0
			CHANNELS 6 Xposition Yposition Zposition Zrotation Xrotation Yrotation 
			JOINT LowerLeg_L
			{
				OFFSET 39.0811 0.0 -1.23785e-05
				CHANNELS 6 Xposition Yposition Zposition Zrotation Xrotation Yrotation 
				JOINT Foot_L
				{
					OFFSET 40.9854 0.0 -1.26872e-05
					CHANNELS 6 Xposition Yposition Zposition Zrotation Xrotation Yrotation 
					JOINT Toes_L
					{
						OFFSET 11.7543 0.0 0.0
						CHANNELS 6 Xposition Yposition Zposition Zrotation Xrotation Yrotation 
						End Site
						{
							OFFSET 0.0 0.0 0.0
						}
					}
				}
			}
		}
		JOINT UpperLeg_R
		{
			OFFSET -2.19251 6.46944 0.0
			CHANNELS 6 Xposition Yposition Zposition Zrotation Xrotation Yrotation 
			JOINT LowerLeg_R
			{
				OFFSET -39.0811 -0.00228153 -0.0401928
				CHANNELS 6 Xposition Yposition Zposition Zrotation Xrotation Yrotation 
				JOINT Foot_R
				{
					OFFSET -40.9854 0.0 0.0
					CHANNELS 6 Xposition Yposition Zposition Zrotation Xrotation Yrotation 
					JOINT Toes_R
					{
						OFFSET -11.7543 0.0 0.0
						CHANNELS 6 Xposition Yposition Zposition Zrotation Xrotation Yrotation 
						End Site
						{
							OFFSET 0.0 0.0 0.0
						}
					}
				}
			}
		}
	}
}
MOTION
Frames:	4
Frame Time:	0.0333333
0.000000 0.000000 0.000000 0.000000 0.000000 -0.000000 -1.796360 90.491900 -0.226448 89.734900 -4.092330 13.449900 15.735700 0.000005 -0.000001 87.580000 82.290000 -87.181800 8.984550 -0.406207 -0.000000 7.642930 -0.648933 0.838998 16.377300 -0.000001 -0.000001 19.973700 -5.075860 1.531930 6.456720 -0.000001 -0.000000 11.199700 -6.474130 -3.182480 12.994200 -0.242716 4.980390 -91.738900 6.005860 -73.819400 5.348090 -0.000007 -0.000001 -62.410300 37.563300 -16.863000 24.328600 0.000019 0.000005 10.136900 23.847800 -23.855700 22.291600 -0.000001 0.000005 5.652350 5.316100 -0.383751 12.994500 -0.242716 -4.980390 88.452600 10.052500 -81.202700 -5.348130 -0.000001 -0.000004 -62.676600 35.933200 -10.794800 -24.328900 0.000322 -0.000009 1.349080 4.032730 -18.527600 -22.291500 -0.000108 -0.000004 12.176700 5.397440 -2.854460 -2.192480 -6.469440 -0.000000 -173.416000 -12.500900 4.258220 39.081100 -0.000007 -0.000012 -0.200703 0.329669 31.333400 40.985400 -0.000006 -0.000013 0.152087 6.254430 -71.687800 11.754300 -0.000000 0.000003 -0.000172 -0.001634 -16.639400 -2.192510 6.469440 -0.000001 172.764000 19.359400 -174.378000 -39.081100 -0.002282 -0.040193 -0.221950 0.377015 30.856800 -40.985400 0.000008 0.000006 4.195860 14.359300 -72.642000 -11.754300 -0.000006 -0.000006 -0.001746 -0.025488 -17.609500
0.000000 0.000000 0.000000 0.000000 0.000000 -0.000000 -1.797300 90.489400 -0.274176 89.674800 -4.023730 13.644200 15.735700 0.000005 -0.000001 87.561000 82.204900 -87.099500 8.984550 -0.406207 -0.000000 7.813360 -0.660545 0.967073 16.377300 -0.000001 -0.000001 20.394500 -5.370910 1.739290 6.456720 -0.000001 -0.000000 11.726100 -6.970630 -3.232960 12.994200 -0.242716 4.980390 -91.797600 6.154480 -73.683600 5.348090 -0.000007 -0.000001 -61.894100 37.102500 -17.021400 24.328600 0.000019 0.000005 10.352300 23.517500 -24.598000 22.291600 -0.000001 0.000005 5.664610 5.319500 -0.481490 12.994500 -0.242716 -4.980390 88.413300 10.181900 -81.094000 -5.348130 -0.000001 -0.000004 -62.521300 35.683000 -10.670900 -24.328900 0.000322 -0.000009 1.358690 4.092540 -18.396800 -22.291500 -0.000108 -0.000004 12.098400 5.396560 -2.826270 -2.192480 -6.469440 -0.000000 -173.338000 -12.390000 4.375570 39.081100 -0.000007 -0.000012 -0.198319 0.324877 31.402000 40.985400 -0.000006 -0.000013 0.157227 6.266190 -71.683300 11.754300 -0.000000 0.000003 -0.000179 -0.001685 -16.641300 -2.192510 6.469440 -0.000001 172.663000 19.645200 -174.160000 -39.081100 -0.002282 -0.040193 -0.215314 0.365971 30.852400 -40.985400 0.000008 0.000006 4.271260 14.584500 -72.627800 -11.754300 -0.000006 -0.000006 -0.001531 -0.022684 -17.495500
0.000000 0.000000 0.000000 0.000000 0.000000 -0.000000 -1.783050 90.485800 -0.361163 89.730200 -3.997500 13.769800 15.735700 0.000005 -0.000001 87.664800 82.127000 -87.179400 8.984550 -0.406207 -0.000000 7.970140 -0.637983 1.014420 16.377300 -0.000001 -0.000001 20.861700 -5.666630 1.958500 6.456720 -0.000001 -0.000000 12.105200 -7.471320 -3.130070 12.994200 -0.242716 4.980390 -91.807000 6.150260 -73.592300 5.348090 -0.000007 -0.000001 -61.362200 36.485600 -17.441900 24.328600 0.000019 0.000005 10.606900 23.300400 -25.334600 22.291600 -0.000001 0.000005 5.703720 5.322100 -0.556263 12.994500 -0.242716 -4.980390 88.398900 10.243600 -81.067700 -5.348130 -0.000001 -0.000004 -62.446800 35.455100 -10.554100 -24.328900 0.000322 -0.000009 1.352310 4.129300 -18.164400 -22.291500 -0.000108 -0.000004 12.174700 5.394960 -2.774660 -2.192480 -6.469440 -0.000000 -173.370000 -12.429700 4.420850 39.081100 -0.000007 -0.000012 -0.199100 0.325749 31.433800 40.985400 -0.000006 -0.000013 0.189503 6.320560 -71.637400 11.754300 -0.000000 0.000003 -0.000169 -0.001608 -16.638500 -2.192510 6.469440 -0.000001 172.569000 19.619000 -174.131000 -39.081100 -0.002282 -0.040193 -0.220049 0.372594 30.940500 -40.985400 0.000008 0.000006 4.268680 14.571700 -72.617400 -11.754300 -0.000006 -0.000006 -0.001784 -0.025981 -17.629600
0.000000 0.000000 0.000000 0.000000 0.000000 -0.000000 -1.762040 90.490000 -0.468190 89.773000 -3.883970 13.894300 15.735700 0.000005 -0.000001 87.586500 82.046100 -87.072400 8.984550 -0.406207 -0.000000 8.131300 -0.665317 1.074510 16.377300 -0.000001 -0.000001 21.336200 -5.990530 2.190730 6.456720 -0.000001 -0.000000 12.419200 -7.952220 -2.985080 12.994200 -0.242716 4.980390 -91.809700 6.130150 -73.518100 5.348090 -0.000007 -0.000001 -60.679900 35.705500 -18.107100 24.328600 0.000019 0.000005 10.975300 23.258400 -26.156500 22.291600 -0.000001 0.000005 5.647520 5.324990 -0.639937 12.994500 -0.242716 -4.980390 88.397600 10.190700 -81.014800 -5.348130 -0.000001 -0.000004 -62.535800 35.353200 -10.422300 -24.328900 0.000322 -0.000009 1.367330 4.240260 -17.904100 -22.291500 -0.000108 -0.000004 12.176300 5.394140 -2.747840 -2.192480 -6.469440 -0.000000 -173.430000 -12.388900 4.449360 39.081100 -0.000007 -0.000012 -0.194759 0.318486 31.446800 40.985400 -0.000006 -0.000013 0.227016 6.354340 -71.568400 11.754300 -0.000000 0.000003 -0.000175 -0.001657 -16.640300 -2.192510 6.469440 -0.000001 172.567000 19.496400 -174.124000 -39.081100 -0.002282 -0.040193 -0.216494 0.365846 30.996900 -40.985400 0.000008 0.000006 4.215970 14.351200 -72.559600 -11.754300 -0.000006 -0.000006 -0.001603 -0.023634 -17.534100
